Love for All and Sharing is the first step to solving all the problems of humanity.

Website I want to share. 
               
   http://www.scenetime.com
 
 
  Credit to EVERYONE for sharing and seeding back
 especially to SCENETIME.COM where i get all my 
 downloads.


 support www.scenetime.com to grow faster.

                             
                                                            
                                                   

.                 ..................................NFO:....................................*******************************************************************************
                   Black.Death.2010.DVDRip.AC3.X264-BARC0DE
*******************************************************************************

-------------------------------------------------------------------------------
                              General Information
-------------------------------------------------------------------------------
Type.................: Movie
Name.................: Black Death
Movie Information....: http://www.imdb.com/title/tt1181791/
Genre................: Drama | Horror | Mystery
-------------------------------------------------------------------------------
                                    PLOT
-------------------------------------------------------------------------------
Set during the time of the first outbreak of bubonic plague in England, a young 
monk is tasked with learning the truth about reports of people being brought 
back to life in a small village.

-------------------------------------------------------------------------------
                                    CAST
-------------------------------------------------------------------------------
Sean Bean	... 	Ulric
Eddie Redmayne	... 	Osmund
Carice van Houten	... 	Langiva
David Warner	... 	The Abbot
Kimberley Nixon	... 	Averill
John Lynch	... 	Wolfstan
Andy Nyman	... 	Dalywag
Tim McInnerny	... 	Hob
Johnny Harris	... 	Mold
Emun Elliott	... 	Swire

-------------------------------------------------------------------------------
                                    MEDiA iNFO
-------------------------------------------------------------------------------

General
Complete name                    : Black.Death.2010.DVDRip.AC3.X264-BARC0DE.mkv
Format                           : Matroska
File size                        : 1.43 GiB
Duration                         : 1h 37mn
Overall bit rate                 : 2 090 Kbps

Video
ID                               : 1
Format                           : AVC
Format/Info                      : Advanced Video Codec
Format profile                   : Main@L3.0
Format settings, CABAC           : Yes
Format settings, ReFrames        : 2 frames
Muxing mode                      : Container profile=Unknown@3.0
Codec ID                         : V_MPEG4/ISO/AVC
Duration                         : 1h 37mn
Bit rate                         : 1 824 Kbps
Nominal bit rate                 : 1 911 Kbps
Width                            : 720 pixels
Height                           : 400 pixels
Display aspect ratio             : 16:9
Frame rate                       : 25.000 fps
Resolution                       : 8 bits
Colorimetry                      : 4:2:0
Scan type                        : Progressive
Bits/(Pixel*Frame)               : 0.253
Stream size                      : 1.25 GiB (87%)
Writing library                  : x264 core 79

Audio
ID                               : 2
Format                           : AC-3
Format/Info                      : Audio Coding 3
Format_Settings_ModeExtension    : CM (complete main)
Codec ID                         : A_AC3
Duration                         : 1h 37mn
Bit rate mode                    : Constant
Bit rate                         : 224 Kbps
Channel(s)                       : 6 channels
Channel positions                : Front: L C R, Side: L R, LFE
Sampling rate                    : 48.0 KHz
Stream size                      : 157 MiB (11%)
Language                         : English

Menu
00:00:00.000                     : Chapter 1
00:07:46.920                     : Chapter 2
00:15:43.960                     : Chapter 3
00:23:09.800                     : Chapter 4
00:30:45.440                     : Chapter 5
00:39:21.920                     : Chapter 6
00:46:14.000                     : Chapter 7
00:53:05.800                     : Chapter 8
01:02:23.120                     : Chapter 9
01:10:30.160                     : Chapter 10
01:16:56.520                     : Chapter 11
01:26:35.960                     : Chapter 12
01:31:35.760                     : Chapter 13
01:37:41.520                     : Chapter 14